<!-- Generated by IcoMoon.io -->
<svg version="1.1" xmlns="http://www.w3.org/2000/svg" width="80" height="80" viewBox="0 0 80 80">
<title>game-controller</title>
<path d="M77.776 37.444c-3.528-19.704-11.416-25.516-15.612-25.516-6.548 0-8.228 4.868-22.164 5.032-13.936-0.164-15.616-5.032-22.164-5.032-4.196 0-12.088 5.812-15.616 25.516-2.012 11.248-4.196 28.040 1.008 30.056 6.476 2.508 8.672-3.764 15.784-9.064 7.22-5.372 10.684-6.636 20.988-6.636s13.768 1.264 20.988 6.636c7.112 5.296 9.308 11.572 15.784 9.064 5.204-2.016 3.020-18.804 1.004-30.056zM24 40c-4.42 0-8-3.584-8-8 0-4.42 3.58-8 8-8s8 3.58 8 8c0 4.416-3.584 8-8 8zM52 40c-2.212 0-4-1.788-4-4s1.788-4 4-4c2.212 0 4 1.788 4 4s-1.788 4-4 4zM60 32c-2.212 0-4-1.788-4-4s1.788-4 4-4c2.212 0 4 1.788 4 4s-1.788 4-4 4z"></path>
</svg>
