<?xml version="1.0" encoding="UTF-8"?> <!-- Generator: Adobe Illustrator 23.1.1, SVG Export Plug-In . SVG Version: 6.00 Build 0) --> <svg xmlns="http://www.w3.org/2000/svg" xmlns:xlink="http://www.w3.org/1999/xlink" id="icon" x="0px" y="0px" viewBox="0 0 1000 1000" style="enable-background:new 0 0 1000 1000;" xml:space="preserve"> <path d="M442.9,920c-56.5,0-111.3-11-163-32.8c-49.9-21-106-55.2-163.1-119.2c131.2-6.1,220.8-57.6,283.8-127.1 c63.5-70,98.5-160.6,98.5-255.2c0-51.5-10.1-101.4-30-148.4c-19.3-45.4-53-99.7-111.8-150.8c101.8-16.8,197.4,4.5,249.2,26.4 c50,21.2,94.9,51.4,133.5,90c38.6,38.6,68.8,83.5,90,133.5c21.9,51.8,33,106.8,33,163.5s-11.1,111.7-33,163.5 c-21.2,50-51.4,94.9-90,133.5c-38.6,38.6-83.5,68.8-133.5,90C554.6,908.9,499.6,920,442.9,920z M205.6,796.8 c67.2,53.9,150,83.2,237.4,83.2c51.3,0,101.1-10,147.9-29.9c45.2-19.1,85.9-46.5,120.8-81.4c34.9-34.9,62.3-75.5,81.4-120.8 c19.8-46.8,29.9-96.6,29.9-147.9s-10-101.1-29.9-147.9c-19.1-45.2-46.5-85.9-81.4-120.8c-34.9-34.9-75.5-62.3-120.8-81.4 c-46.4-19.6-95.6-29.7-146.4-29.9c25.2,30.8,45.8,64.9,61.5,101.7c22,51.9,33.2,107.1,33.2,164c0,104.5-38.7,204.7-108.8,282.1 C370.4,733.9,291.8,778.8,205.6,796.8z" fill="#005caf"></path> </svg> 